<svg xmlns="http://www.w3.org/2000/svg" viewBox="0 0 100 100">
  <!-- stylised five-lobe Japanese maple leaf silhouette -->
  <g fill="#c0392b">
    <path d="M50 96 L48 64 L50 62 L52 64 Z"/>
    <path d="M50 62
      C 49 56 46 52 40 50
      C 44 49 47 46 47 40
      C 44 45 39 47 33 47
      C 39 44 41 39 40 33
      C 37 40 31 43 24 44
      C 31 40 33 33 31 26
      C 33 35 40 40 47 44
      C 45 36 46 24 50 8
      C 54 24 55 36 53 44
      C 60 40 67 35 69 26
      C 67 33 69 40 76 44
      C 69 43 63 40 60 33
      C 59 39 61 44 67 47
      C 61 47 56 45 53 40
      C 53 46 56 49 60 50
      C 54 52 51 56 50 62 Z"/>
  </g>
</svg>
